<svg xmlns="http://www.w3.org/2000/svg" viewBox="0 0 1080 1350" width="1080" height="1350"><rect width="1080" height="1350" fill="#EDE8DC"/>
<g transform="translate(540,460) rotate(-18)"><ellipse rx="430" ry="164" fill="none" stroke="#141312" stroke-width="2" opacity="0.55"/></g>
<path d="M 751.7822263711676,229.10004589776025 Q 756.4622263711675,250.42004589776025 777.7822263711676,255.10004589776025 Q 756.4622263711675,259.78004589776026 751.7822263711676,281.10004589776025 Q 747.1022263711676,259.78004589776026 725.7822263711676,255.10004589776025 Q 747.1022263711676,250.42004589776025 751.7822263711676,229.10004589776025 Z" fill="#2B4DFF"/>
<path d="M 206,687 Q 208.34,697.66 219,700 Q 208.34,702.34 206,713 Q 203.66,702.34 193,700 Q 203.66,697.66 206,687 Z" fill="#141312"/>
<g transform="translate(180,110)"><rect x="312.0" y="0.0" width="24.0" height="24.0" fill="#1B2CC8"/>
<rect x="336.0" y="0.0" width="24.0" height="24.0" fill="#2B4DFF"/>
<rect x="360.0" y="0.0" width="24.0" height="24.0" fill="#2B4DFF"/>
<rect x="384.0" y="0.0" width="24.0" height="24.0" fill="#1B2CC8"/>
<rect x="240.0" y="24.0" width="24.0" height="24.0" fill="#2B4DFF"/>
<rect x="264.0" y="24.0" width="24.0" height="24.0" fill="#1B2CC8"/>
<rect x="288.0" y="24.0" width="24.0" height="24.0" fill="#1B2CC8"/>
<rect x="312.0" y="24.0" width="24.0" height="24.0" fill="#1B2CC8"/>
<rect x="336.0" y="24.0" width="24.0" height="24.0" fill="#1B2CC8"/>
<rect x="360.0" y="24.0" width="24.0" height="24.0" fill="#2B4DFF"/>
<rect x="384.0" y="24.0" width="24.0" height="24.0" fill="#1B2CC8"/>
<rect x="408.0" y="24.0" width="24.0" height="24.0" fill="#2B4DFF"/>
<rect x="432.0" y="24.0" width="24.0" height="24.0" fill="#1B2CC8"/>
<rect x="456.0" y="24.0" width="24.0" height="24.0" fill="#2B4DFF"/>
<rect x="216.0" y="48.0" width="24.0" height="24.0" fill="#1B2CC8"/>
<rect x="240.0" y="48.0" width="24.0" height="24.0" fill="#1B2CC8"/>
<rect x="264.0" y="48.0" width="24.0" height="24.0" fill="#2B4DFF"/>
<rect x="288.0" y="48.0" width="24.0" height="24.0" fill="#1B2CC8"/>
<rect x="312.0" y="48.0" width="24.0" height="24.0" fill="#1B2CC8"/>
<rect x="336.0" y="48.0" width="24.0" height="24.0" fill="#1B2CC8"/>
<rect x="360.0" y="48.0" width="24.0" height="24.0" fill="#1B2CC8"/>
<rect x="384.0" y="48.0" width="24.0" height="24.0" fill="#2B4DFF"/>
<rect x="408.0" y="48.0" width="24.0" height="24.0" fill="#2B4DFF"/>
<rect x="432.0" y="48.0" width="24.0" height="24.0" fill="#2B4DFF"/>
<rect x="456.0" y="48.0" width="24.0" height="24.0" fill="#1B2CC8"/>
<rect x="480.0" y="48.0" width="24.0" height="24.0" fill="#2B4DFF"/>
<rect x="192.0" y="72.0" width="24.0" height="24.0" fill="#1B2CC8"/>
<rect x="216.0" y="72.0" width="24.0" height="24.0" fill="#1B2CC8"/>
<rect x="240.0" y="72.0" width="24.0" height="24.0" fill="#1B2CC8"/>
<rect x="264.0" y="72.0" width="24.0" height="24.0" fill="#2B4DFF"/>
<rect x="288.0" y="72.0" width="24.0" height="24.0" fill="#1B2CC8"/>
<rect x="312.0" y="72.0" width="24.0" height="24.0" fill="#1B2CC8"/>
<rect x="336.0" y="72.0" width="24.0" height="24.0" fill="#2B4DFF"/>
<rect x="360.0" y="72.0" width="24.0" height="24.0" fill="#1B2CC8"/>
<rect x="384.0" y="72.0" width="24.0" height="24.0" fill="#2B4DFF"/>
<rect x="408.0" y="72.0" width="24.0" height="24.0" fill="#1B2CC8"/>
<rect x="432.0" y="72.0" width="24.0" height="24.0" fill="#1B2CC8"/>
<rect x="456.0" y="72.0" width="24.0" height="24.0" fill="#1B2CC8"/>
<rect x="480.0" y="72.0" width="24.0" height="24.0" fill="#2B4DFF"/>
<rect x="504.0" y="72.0" width="24.0" height="24.0" fill="#2B4DFF"/>
<rect x="192.0" y="96.0" width="24.0" height="24.0" fill="#1B2CC8"/>
<rect x="216.0" y="96.0" width="24.0" height="24.0" fill="#1B2CC8"/>
<rect x="240.0" y="96.0" width="24.0" height="24.0" fill="#2B4DFF"/>
<rect x="264.0" y="96.0" width="24.0" height="24.0" fill="#2B4DFF"/>
<rect x="288.0" y="96.0" width="24.0" height="24.0" fill="#2B4DFF"/>
<rect x="312.0" y="96.0" width="24.0" height="24.0" fill="#2B4DFF"/>
<rect x="336.0" y="96.0" width="24.0" height="24.0" fill="#2B4DFF"/>
<rect x="360.0" y="96.0" width="24.0" height="24.0" fill="#1B2CC8"/>
<rect x="384.0" y="96.0" width="24.0" height="24.0" fill="#2B4DFF"/>
<rect x="408.0" y="96.0" width="24.0" height="24.0" fill="#2B4DFF"/>
<rect x="432.0" y="96.0" width="24.0" height="24.0" fill="#1B2CC8"/>
<rect x="456.0" y="96.0" width="24.0" height="24.0" fill="#2B4DFF"/>
<rect x="480.0" y="96.0" width="24.0" height="24.0" fill="#1B2CC8"/>
<rect x="504.0" y="96.0" width="24.0" height="24.0" fill="#2B4DFF"/>
<rect x="192.0" y="120.0" width="24.0" height="24.0" fill="#2B4DFF"/>
<rect x="216.0" y="120.0" width="24.0" height="24.0" fill="#2B4DFF"/>
<rect x="240.0" y="120.0" width="24.0" height="24.0" fill="#2B4DFF"/>
<rect x="264.0" y="120.0" width="24.0" height="24.0" fill="#1B2CC8"/>
<rect x="288.0" y="120.0" width="24.0" height="24.0" fill="#1B2CC8"/>
<rect x="312.0" y="120.0" width="24.0" height="24.0" fill="#1B2CC8"/>
<rect x="336.0" y="120.0" width="24.0" height="24.0" fill="#2B4DFF"/>
<rect x="360.0" y="120.0" width="24.0" height="24.0" fill="#2B4DFF"/>
<rect x="384.0" y="120.0" width="24.0" height="24.0" fill="#2B4DFF"/>
<rect x="408.0" y="120.0" width="24.0" height="24.0" fill="#6C3BFF"/>
<rect x="432.0" y="120.0" width="24.0" height="24.0" fill="#2B4DFF"/>
<rect x="456.0" y="120.0" width="24.0" height="24.0" fill="#2B4DFF"/>
<rect x="480.0" y="120.0" width="24.0" height="24.0" fill="#2B4DFF"/>
<rect x="504.0" y="120.0" width="24.0" height="24.0" fill="#2B4DFF"/>
<rect x="168.0" y="144.0" width="24.0" height="24.0" fill="#2B4DFF"/>
<rect x="192.0" y="144.0" width="24.0" height="24.0" fill="#2B4DFF"/>
<rect x="216.0" y="144.0" width="24.0" height="24.0" fill="#2B4DFF"/>
<rect x="240.0" y="144.0" width="24.0" height="24.0" fill="#1B2CC8"/>
<rect x="264.0" y="144.0" width="24.0" height="24.0" fill="#2B4DFF"/>
<rect x="288.0" y="144.0" width="24.0" height="24.0" fill="#2B4DFF"/>
<rect x="312.0" y="144.0" width="24.0" height="24.0" fill="#2B4DFF"/>
<rect x="336.0" y="144.0" width="24.0" height="24.0" fill="#1B2CC8"/>
<rect x="360.0" y="144.0" width="24.0" height="24.0" fill="#2B4DFF"/>
<rect x="384.0" y="144.0" width="24.0" height="24.0" fill="#6C3BFF"/>
<rect x="408.0" y="144.0" width="24.0" height="24.0" fill="#2B4DFF"/>
<rect x="432.0" y="144.0" width="24.0" height="24.0" fill="#2B4DFF"/>
<rect x="456.0" y="144.0" width="24.0" height="24.0" fill="#2B4DFF"/>
<rect x="480.0" y="144.0" width="24.0" height="24.0" fill="#2B4DFF"/>
<rect x="504.0" y="144.0" width="24.0" height="24.0" fill="#2B4DFF"/>
<rect x="528.0" y="144.0" width="24.0" height="24.0" fill="#6C3BFF"/>
<rect x="168.0" y="168.0" width="24.0" height="24.0" fill="#1B2CC8"/>
<rect x="192.0" y="168.0" width="24.0" height="24.0" fill="#2B4DFF"/>
<rect x="216.0" y="168.0" width="24.0" height="24.0" fill="#1B2CC8"/>
<rect x="240.0" y="168.0" width="24.0" height="24.0" fill="#2B4DFF"/>
<rect x="264.0" y="168.0" width="24.0" height="24.0" fill="#1B2CC8"/>
<rect x="288.0" y="168.0" width="24.0" height="24.0" fill="#2B4DFF"/>
<rect x="336.0" y="168.0" width="24.0" height="24.0" fill="#6C3BFF"/>
<rect x="360.0" y="168.0" width="24.0" height="24.0" fill="#2B4DFF"/>
<rect x="384.0" y="168.0" width="24.0" height="24.0" fill="#2B4DFF"/>
<rect x="408.0" y="168.0" width="24.0" height="24.0" fill="#6C3BFF"/>
<rect x="432.0" y="168.0" width="24.0" height="24.0" fill="#2B4DFF"/>
<rect x="456.0" y="168.0" width="24.0" height="24.0" fill="#2B4DFF"/>
<rect x="480.0" y="168.0" width="24.0" height="24.0" fill="#2B4DFF"/>
<rect x="504.0" y="168.0" width="24.0" height="24.0" fill="#6C3BFF"/>
<rect x="528.0" y="168.0" width="24.0" height="24.0" fill="#2B4DFF"/>
<rect x="168.0" y="192.0" width="24.0" height="24.0" fill="#2B4DFF"/>
<rect x="192.0" y="192.0" width="24.0" height="24.0" fill="#2B4DFF"/>
<rect x="216.0" y="192.0" width="24.0" height="24.0" fill="#EDE8DC"/>
<rect x="240.0" y="192.0" width="24.0" height="24.0" fill="#EDE8DC"/>
<rect x="264.0" y="192.0" width="24.0" height="24.0" fill="#EDE8DC"/>
<rect x="288.0" y="192.0" width="24.0" height="24.0" fill="#6C3BFF"/>
<rect x="312.0" y="192.0" width="24.0" height="24.0" fill="#2B4DFF"/>
<rect x="336.0" y="192.0" width="24.0" height="24.0" fill="#2B4DFF"/>
<rect x="360.0" y="192.0" width="24.0" height="24.0" fill="#2B4DFF"/>
<rect x="384.0" y="192.0" width="24.0" height="24.0" fill="#2B4DFF"/>
<rect x="408.0" y="192.0" width="24.0" height="24.0" fill="#6C3BFF"/>
<rect x="432.0" y="192.0" width="24.0" height="24.0" fill="#EDE8DC"/>
<rect x="456.0" y="192.0" width="24.0" height="24.0" fill="#EDE8DC"/>
<rect x="480.0" y="192.0" width="24.0" height="24.0" fill="#EDE8DC"/>
<rect x="504.0" y="192.0" width="24.0" height="24.0" fill="#2B4DFF"/>
<rect x="528.0" y="192.0" width="24.0" height="24.0" fill="#2B4DFF"/>
<rect x="168.0" y="216.0" width="24.0" height="24.0" fill="#1B2CC8"/>
<rect x="192.0" y="216.0" width="24.0" height="24.0" fill="#1B2CC8"/>
<rect x="216.0" y="216.0" width="24.0" height="24.0" fill="#EDE8DC"/>
<rect x="240.0" y="216.0" width="24.0" height="24.0" fill="#141312"/>
<rect x="264.0" y="216.0" width="24.0" height="24.0" fill="#EDE8DC"/>
<rect x="288.0" y="216.0" width="24.0" height="24.0" fill="#2B4DFF"/>
<rect x="312.0" y="216.0" width="24.0" height="24.0" fill="#6C3BFF"/>
<rect x="336.0" y="216.0" width="24.0" height="24.0" fill="#6C3BFF"/>
<rect x="360.0" y="216.0" width="24.0" height="24.0" fill="#6C3BFF"/>
<rect x="384.0" y="216.0" width="24.0" height="24.0" fill="#2B4DFF"/>
<rect x="408.0" y="216.0" width="24.0" height="24.0" fill="#6C3BFF"/>
<rect x="432.0" y="216.0" width="24.0" height="24.0" fill="#EDE8DC"/>
<rect x="456.0" y="216.0" width="24.0" height="24.0" fill="#141312"/>
<rect x="480.0" y="216.0" width="24.0" height="24.0" fill="#EDE8DC"/>
<rect x="504.0" y="216.0" width="24.0" height="24.0" fill="#2B4DFF"/>
<rect x="528.0" y="216.0" width="24.0" height="24.0" fill="#2B4DFF"/>
<rect x="192.0" y="240.0" width="24.0" height="24.0" fill="#1B2CC8"/>
<rect x="216.0" y="240.0" width="24.0" height="24.0" fill="#EDE8DC"/>
<rect x="240.0" y="240.0" width="24.0" height="24.0" fill="#EDE8DC"/>
<rect x="264.0" y="240.0" width="24.0" height="24.0" fill="#EDE8DC"/>
<rect x="288.0" y="240.0" width="24.0" height="24.0" fill="#6C3BFF"/>
<rect x="312.0" y="240.0" width="24.0" height="24.0" fill="#2B4DFF"/>
<rect x="336.0" y="240.0" width="24.0" height="24.0" fill="#2B4DFF"/>
<rect x="360.0" y="240.0" width="24.0" height="24.0" fill="#6C3BFF"/>
<rect x="384.0" y="240.0" width="24.0" height="24.0" fill="#6C3BFF"/>
<rect x="408.0" y="240.0" width="24.0" height="24.0" fill="#6C3BFF"/>
<rect x="432.0" y="240.0" width="24.0" height="24.0" fill="#EDE8DC"/>
<rect x="456.0" y="240.0" width="24.0" height="24.0" fill="#EDE8DC"/>
<rect x="480.0" y="240.0" width="24.0" height="24.0" fill="#EDE8DC"/>
<rect x="504.0" y="240.0" width="24.0" height="24.0" fill="#6C3BFF"/>
<rect x="192.0" y="264.0" width="24.0" height="24.0" fill="#2B4DFF"/>
<rect x="216.0" y="264.0" width="24.0" height="24.0" fill="#2B4DFF"/>
<rect x="240.0" y="264.0" width="24.0" height="24.0" fill="#6C3BFF"/>
<rect x="264.0" y="264.0" width="24.0" height="24.0" fill="#2B4DFF"/>
<rect x="288.0" y="264.0" width="24.0" height="24.0" fill="#2B4DFF"/>
<rect x="312.0" y="264.0" width="24.0" height="24.0" fill="#6C3BFF"/>
<rect x="336.0" y="264.0" width="24.0" height="24.0" fill="#2B4DFF"/>
<rect x="360.0" y="264.0" width="24.0" height="24.0" fill="#6C3BFF"/>
<rect x="384.0" y="264.0" width="24.0" height="24.0" fill="#2B4DFF"/>
<rect x="408.0" y="264.0" width="24.0" height="24.0" fill="#2B4DFF"/>
<rect x="432.0" y="264.0" width="24.0" height="24.0" fill="#6C3BFF"/>
<rect x="456.0" y="264.0" width="24.0" height="24.0" fill="#6C3BFF"/>
<rect x="480.0" y="264.0" width="24.0" height="24.0" fill="#6C3BFF"/>
<rect x="504.0" y="264.0" width="24.0" height="24.0" fill="#6C3BFF"/>
<rect x="216.0" y="288.0" width="24.0" height="24.0" fill="#6C3BFF"/>
<rect x="240.0" y="288.0" width="24.0" height="24.0" fill="#2B4DFF"/>
<rect x="264.0" y="288.0" width="24.0" height="24.0" fill="#2B4DFF"/>
<rect x="288.0" y="288.0" width="24.0" height="24.0" fill="#2B4DFF"/>
<rect x="312.0" y="288.0" width="24.0" height="24.0" fill="#2B4DFF"/>
<rect x="336.0" y="288.0" width="24.0" height="24.0" fill="#2B4DFF"/>
<rect x="360.0" y="288.0" width="24.0" height="24.0" fill="#2B4DFF"/>
<rect x="384.0" y="288.0" width="24.0" height="24.0" fill="#6C3BFF"/>
<rect x="408.0" y="288.0" width="24.0" height="24.0" fill="#2B4DFF"/>
<rect x="432.0" y="288.0" width="24.0" height="24.0" fill="#6C3BFF"/>
<rect x="480.0" y="288.0" width="24.0" height="24.0" fill="#6C3BFF"/>
<rect x="240.0" y="312.0" width="24.0" height="24.0" fill="#6C3BFF"/>
<rect x="264.0" y="312.0" width="24.0" height="24.0" fill="#2B4DFF"/>
<rect x="288.0" y="312.0" width="24.0" height="24.0" fill="#2B4DFF"/>
<rect x="312.0" y="312.0" width="24.0" height="24.0" fill="#2B4DFF"/>
<rect x="336.0" y="312.0" width="24.0" height="24.0" fill="#2B4DFF"/>
<rect x="360.0" y="312.0" width="24.0" height="24.0" fill="#6C3BFF"/>
<rect x="384.0" y="312.0" width="24.0" height="24.0" fill="#6C3BFF"/>
<rect x="408.0" y="312.0" width="24.0" height="24.0" fill="#6C3BFF"/>
<rect x="432.0" y="312.0" width="24.0" height="24.0" fill="#6C3BFF"/>
<rect x="456.0" y="312.0" width="24.0" height="24.0" fill="#6C3BFF"/>
<rect x="288.0" y="336.0" width="24.0" height="24.0" fill="#6C3BFF"/>
<rect x="312.0" y="336.0" width="24.0" height="24.0" fill="#6C3BFF"/>
<rect x="336.0" y="336.0" width="24.0" height="24.0" fill="#6C3BFF"/>
<rect x="360.0" y="336.0" width="24.0" height="24.0" fill="#6C3BFF"/>
<rect x="384.0" y="336.0" width="24.0" height="24.0" fill="#C42BD6"/>
<rect x="408.0" y="336.0" width="24.0" height="24.0" fill="#6C3BFF"/>
<rect x="216.0" y="312.0" width="24.0" height="24.0" fill="#6C3BFF"/>
<rect x="192.0" y="336.0" width="24.0" height="24.0" fill="#2B4DFF"/>
<rect x="216.0" y="336.0" width="24.0" height="24.0" fill="#6C3BFF"/>
<rect x="192.0" y="360.0" width="24.0" height="24.0" fill="#2B4DFF"/>
<rect x="216.0" y="360.0" width="24.0" height="24.0" fill="#2B4DFF"/>
<rect x="168.0" y="384.0" width="24.0" height="24.0" fill="#2B4DFF"/>
<rect x="192.0" y="384.0" width="24.0" height="24.0" fill="#6C3BFF"/>
<rect x="144.0" y="408.0" width="24.0" height="24.0" fill="#6C3BFF"/>
<rect x="168.0" y="408.0" width="24.0" height="24.0" fill="#6C3BFF"/>
<rect x="120.0" y="432.0" width="24.0" height="24.0" fill="#6C3BFF"/>
<rect x="96.0" y="432.0" width="24.0" height="24.0" fill="#6C3BFF"/>
<rect x="72.0" y="456.0" width="24.0" height="24.0" fill="#6C3BFF"/>
<rect x="96.0" y="456.0" width="24.0" height="24.0" fill="#6C3BFF"/>
<rect x="48.0" y="480.0" width="24.0" height="24.0" fill="#6C3BFF"/>
<rect x="72.0" y="480.0" width="24.0" height="24.0" fill="#6C3BFF"/>
<rect x="24.0" y="504.0" width="24.0" height="24.0" fill="#6C3BFF"/>
<rect x="48.0" y="504.0" width="24.0" height="24.0" fill="#6C3BFF"/>
<rect x="0.0" y="528.0" width="24.0" height="24.0" fill="#6C3BFF"/>
<rect x="24.0" y="528.0" width="24.0" height="24.0" fill="#C42BD6"/>
<rect x="0.0" y="552.0" width="24.0" height="24.0" fill="#2B4DFF"/>
<rect x="264.0" y="336.0" width="24.0" height="24.0" fill="#6C3BFF"/>
<rect x="240.0" y="360.0" width="24.0" height="24.0" fill="#2B4DFF"/>
<rect x="264.0" y="360.0" width="24.0" height="24.0" fill="#6C3BFF"/>
<rect x="216.0" y="384.0" width="24.0" height="24.0" fill="#2B4DFF"/>
<rect x="240.0" y="384.0" width="24.0" height="24.0" fill="#6C3BFF"/>
<rect x="192.0" y="408.0" width="24.0" height="24.0" fill="#2B4DFF"/>
<rect x="216.0" y="408.0" width="24.0" height="24.0" fill="#6C3BFF"/>
<rect x="168.0" y="432.0" width="24.0" height="24.0" fill="#6C3BFF"/>
<rect x="192.0" y="432.0" width="24.0" height="24.0" fill="#2B4DFF"/>
<rect x="168.0" y="456.0" width="24.0" height="24.0" fill="#6C3BFF"/>
<rect x="192.0" y="456.0" width="24.0" height="24.0" fill="#C42BD6"/>
<rect x="144.0" y="480.0" width="24.0" height="24.0" fill="#6C3BFF"/>
<rect x="168.0" y="480.0" width="24.0" height="24.0" fill="#C42BD6"/>
<rect x="144.0" y="504.0" width="24.0" height="24.0" fill="#6C3BFF"/>
<rect x="168.0" y="504.0" width="24.0" height="24.0" fill="#C42BD6"/>
<rect x="120.0" y="528.0" width="24.0" height="24.0" fill="#6C3BFF"/>
<rect x="144.0" y="528.0" width="24.0" height="24.0" fill="#6C3BFF"/>
<rect x="120.0" y="552.0" width="24.0" height="24.0" fill="#C42BD6"/>
<rect x="96.0" y="576.0" width="24.0" height="24.0" fill="#C42BD6"/>
<rect x="72.0" y="576.0" width="24.0" height="24.0" fill="#C42BD6"/>
<rect x="48.0" y="576.0" width="24.0" height="24.0" fill="#6C3BFF"/>
<rect x="48.0" y="552.0" width="24.0" height="24.0" fill="#C42BD6"/>
<rect x="288.0" y="360.0" width="24.0" height="24.0" fill="#6C3BFF"/>
<rect x="264.0" y="384.0" width="24.0" height="24.0" fill="#6C3BFF"/>
<rect x="288.0" y="384.0" width="24.0" height="24.0" fill="#2B4DFF"/>
<rect x="264.0" y="408.0" width="24.0" height="24.0" fill="#C42BD6"/>
<rect x="288.0" y="408.0" width="24.0" height="24.0" fill="#C42BD6"/>
<rect x="264.0" y="432.0" width="24.0" height="24.0" fill="#C42BD6"/>
<rect x="288.0" y="432.0" width="24.0" height="24.0" fill="#6C3BFF"/>
<rect x="264.0" y="456.0" width="24.0" height="24.0" fill="#6C3BFF"/>
<rect x="288.0" y="456.0" width="24.0" height="24.0" fill="#6C3BFF"/>
<rect x="264.0" y="480.0" width="24.0" height="24.0" fill="#C42BD6"/>
<rect x="288.0" y="480.0" width="24.0" height="24.0" fill="#C42BD6"/>
<rect x="240.0" y="504.0" width="24.0" height="24.0" fill="#6C3BFF"/>
<rect x="264.0" y="504.0" width="24.0" height="24.0" fill="#6C3BFF"/>
<rect x="240.0" y="528.0" width="24.0" height="24.0" fill="#C42BD6"/>
<rect x="264.0" y="528.0" width="24.0" height="24.0" fill="#6C3BFF"/>
<rect x="216.0" y="552.0" width="24.0" height="24.0" fill="#C42BD6"/>
<rect x="240.0" y="552.0" width="24.0" height="24.0" fill="#C42BD6"/>
<rect x="216.0" y="576.0" width="24.0" height="24.0" fill="#C42BD6"/>
<rect x="240.0" y="576.0" width="24.0" height="24.0" fill="#C42BD6"/>
<rect x="192.0" y="600.0" width="24.0" height="24.0" fill="#6C3BFF"/>
<rect x="216.0" y="600.0" width="24.0" height="24.0" fill="#C42BD6"/>
<rect x="192.0" y="624.0" width="24.0" height="24.0" fill="#6C3BFF"/>
<rect x="192.0" y="648.0" width="24.0" height="24.0" fill="#C42BD6"/>
<rect x="216.0" y="648.0" width="24.0" height="24.0" fill="#C42BD6"/>
<rect x="240.0" y="648.0" width="24.0" height="24.0" fill="#FF3D6E"/>
<rect x="240.0" y="624.0" width="24.0" height="24.0" fill="#FF3D6E"/>
<rect x="336.0" y="360.0" width="24.0" height="24.0" fill="#2B4DFF"/>
<rect x="360.0" y="360.0" width="24.0" height="24.0" fill="#6C3BFF"/>
<rect x="336.0" y="384.0" width="24.0" height="24.0" fill="#6C3BFF"/>
<rect x="360.0" y="384.0" width="24.0" height="24.0" fill="#2B4DFF"/>
<rect x="336.0" y="408.0" width="24.0" height="24.0" fill="#6C3BFF"/>
<rect x="360.0" y="408.0" width="24.0" height="24.0" fill="#6C3BFF"/>
<rect x="336.0" y="432.0" width="24.0" height="24.0" fill="#C42BD6"/>
<rect x="360.0" y="432.0" width="24.0" height="24.0" fill="#6C3BFF"/>
<rect x="312.0" y="456.0" width="24.0" height="24.0" fill="#6C3BFF"/>
<rect x="312.0" y="480.0" width="24.0" height="24.0" fill="#6C3BFF"/>
<rect x="384.0" y="360.0" width="24.0" height="24.0" fill="#2B4DFF"/>
<rect x="408.0" y="360.0" width="24.0" height="24.0" fill="#6C3BFF"/>
<rect x="384.0" y="384.0" width="24.0" height="24.0" fill="#6C3BFF"/>
<rect x="408.0" y="384.0" width="24.0" height="24.0" fill="#C42BD6"/>
<rect x="384.0" y="408.0" width="24.0" height="24.0" fill="#6C3BFF"/>
<rect x="408.0" y="408.0" width="24.0" height="24.0" fill="#6C3BFF"/>
<rect x="384.0" y="432.0" width="24.0" height="24.0" fill="#C42BD6"/>
<rect x="384.0" y="456.0" width="24.0" height="24.0" fill="#C42BD6"/>
<rect x="408.0" y="456.0" width="24.0" height="24.0" fill="#C42BD6"/>
<rect x="384.0" y="480.0" width="24.0" height="24.0" fill="#6C3BFF"/>
<rect x="384.0" y="504.0" width="24.0" height="24.0" fill="#C42BD6"/>
<rect x="408.0" y="504.0" width="24.0" height="24.0" fill="#C42BD6"/>
<rect x="432.0" y="504.0" width="24.0" height="24.0" fill="#C42BD6"/>
<rect x="432.0" y="480.0" width="24.0" height="24.0" fill="#C42BD6"/>
<rect x="432.0" y="336.0" width="24.0" height="24.0" fill="#6C3BFF"/>
<rect x="432.0" y="360.0" width="24.0" height="24.0" fill="#6C3BFF"/>
<rect x="432.0" y="384.0" width="24.0" height="24.0" fill="#6C3BFF"/>
<rect x="456.0" y="384.0" width="24.0" height="24.0" fill="#6C3BFF"/>
<rect x="432.0" y="408.0" width="24.0" height="24.0" fill="#6C3BFF"/>
<rect x="456.0" y="408.0" width="24.0" height="24.0" fill="#6C3BFF"/>
<rect x="456.0" y="432.0" width="24.0" height="24.0" fill="#6C3BFF"/>
<rect x="480.0" y="432.0" width="24.0" height="24.0" fill="#6C3BFF"/>
<rect x="456.0" y="456.0" width="24.0" height="24.0" fill="#C42BD6"/>
<rect x="480.0" y="456.0" width="24.0" height="24.0" fill="#C42BD6"/>
<rect x="480.0" y="480.0" width="24.0" height="24.0" fill="#6C3BFF"/>
<rect x="504.0" y="480.0" width="24.0" height="24.0" fill="#C42BD6"/>
<rect x="480.0" y="504.0" width="24.0" height="24.0" fill="#C42BD6"/>
<rect x="504.0" y="504.0" width="24.0" height="24.0" fill="#6C3BFF"/>
<rect x="480.0" y="528.0" width="24.0" height="24.0" fill="#C42BD6"/>
<rect x="504.0" y="528.0" width="24.0" height="24.0" fill="#C42BD6"/>
<rect x="480.0" y="552.0" width="24.0" height="24.0" fill="#C42BD6"/>
<rect x="504.0" y="552.0" width="24.0" height="24.0" fill="#C42BD6"/>
<rect x="480.0" y="576.0" width="24.0" height="24.0" fill="#FF3D6E"/>
<rect x="504.0" y="576.0" width="24.0" height="24.0" fill="#FF3D6E"/>
<rect x="480.0" y="600.0" width="24.0" height="24.0" fill="#C42BD6"/>
<rect x="504.0" y="600.0" width="24.0" height="24.0" fill="#C42BD6"/>
<rect x="504.0" y="624.0" width="24.0" height="24.0" fill="#C42BD6"/>
<rect x="504.0" y="648.0" width="24.0" height="24.0" fill="#FF3D6E"/>
<rect x="528.0" y="648.0" width="24.0" height="24.0" fill="#FF3D6E"/>
<rect x="552.0" y="648.0" width="24.0" height="24.0" fill="#C42BD6"/>
<rect x="552.0" y="624.0" width="24.0" height="24.0" fill="#C42BD6"/>
<rect x="456.0" y="336.0" width="24.0" height="24.0" fill="#6C3BFF"/>
<rect x="480.0" y="336.0" width="24.0" height="24.0" fill="#6C3BFF"/>
<rect x="480.0" y="360.0" width="24.0" height="24.0" fill="#6C3BFF"/>
<rect x="504.0" y="360.0" width="24.0" height="24.0" fill="#C42BD6"/>
<rect x="504.0" y="384.0" width="24.0" height="24.0" fill="#C42BD6"/>
<rect x="504.0" y="408.0" width="24.0" height="24.0" fill="#C42BD6"/>
<rect x="528.0" y="408.0" width="24.0" height="24.0" fill="#6C3BFF"/>
<rect x="528.0" y="432.0" width="24.0" height="24.0" fill="#6C3BFF"/>
<rect x="552.0" y="432.0" width="24.0" height="24.0" fill="#C42BD6"/>
<rect x="528.0" y="456.0" width="24.0" height="24.0" fill="#C42BD6"/>
<rect x="552.0" y="456.0" width="24.0" height="24.0" fill="#6C3BFF"/>
<rect x="552.0" y="480.0" width="24.0" height="24.0" fill="#C42BD6"/>
<rect x="576.0" y="480.0" width="24.0" height="24.0" fill="#C42BD6"/>
<rect x="552.0" y="504.0" width="24.0" height="24.0" fill="#C42BD6"/>
<rect x="576.0" y="504.0" width="24.0" height="24.0" fill="#C42BD6"/>
<rect x="576.0" y="528.0" width="24.0" height="24.0" fill="#C42BD6"/>
<rect x="600.0" y="528.0" width="24.0" height="24.0" fill="#C42BD6"/>
<rect x="576.0" y="552.0" width="24.0" height="24.0" fill="#FF3D6E"/>
<rect x="600.0" y="576.0" width="24.0" height="24.0" fill="#C42BD6"/>
<rect x="576.0" y="576.0" width="24.0" height="24.0" fill="#C42BD6"/>
<rect x="552.0" y="576.0" width="24.0" height="24.0" fill="#FF3D6E"/>
<rect x="552.0" y="552.0" width="24.0" height="24.0" fill="#FF3D6E"/>
<rect x="480.0" y="312.0" width="24.0" height="24.0" fill="#6C3BFF"/>
<rect x="504.0" y="312.0" width="24.0" height="24.0" fill="#6C3BFF"/>
<rect x="504.0" y="336.0" width="24.0" height="24.0" fill="#C42BD6"/>
<rect x="528.0" y="336.0" width="24.0" height="24.0" fill="#6C3BFF"/>
<rect x="528.0" y="360.0" width="24.0" height="24.0" fill="#6C3BFF"/>
<rect x="552.0" y="360.0" width="24.0" height="24.0" fill="#C42BD6"/>
<rect x="552.0" y="384.0" width="24.0" height="24.0" fill="#C42BD6"/>
<rect x="576.0" y="384.0" width="24.0" height="24.0" fill="#C42BD6"/>
<rect x="576.0" y="408.0" width="24.0" height="24.0" fill="#C42BD6"/>
<rect x="600.0" y="408.0" width="24.0" height="24.0" fill="#C42BD6"/>
<rect x="600.0" y="432.0" width="24.0" height="24.0" fill="#C42BD6"/>
<rect x="624.0" y="432.0" width="24.0" height="24.0" fill="#6C3BFF"/>
<rect x="624.0" y="456.0" width="24.0" height="24.0" fill="#C42BD6"/>
<rect x="648.0" y="456.0" width="24.0" height="24.0" fill="#C42BD6"/>
<rect x="648.0" y="480.0" width="24.0" height="24.0" fill="#C42BD6"/>
<rect x="672.0" y="480.0" width="24.0" height="24.0" fill="#FF3D6E"/>
<rect x="672.0" y="504.0" width="24.0" height="24.0" fill="#C42BD6"/>
<rect x="696.0" y="504.0" width="24.0" height="24.0" fill="#FF3D6E"/>
<rect x="696.0" y="528.0" width="24.0" height="24.0" fill="#C42BD6"/>
<rect x="504.0" y="24.0" width="24.0" height="24.0" fill="#1B2CC8"/>
<rect x="48.0" y="288.0" width="24.0" height="24.0" fill="#2B4DFF"/>
<rect x="648.0" y="408.0" width="24.0" height="24.0" fill="#6C3BFF"/>
<rect x="72.0" y="144.0" width="24.0" height="24.0" fill="#1B2CC8"/>
<rect x="0.0" y="384.0" width="24.0" height="24.0" fill="#6C3BFF"/></g>
<g transform="translate(90.0,759.9) scale(2.0576)"><path fill-rule="evenodd" fill="#141312" d="M 0.00,70.00 A 70,70 0 1 0 140.00,70.00 A 70,70 0 1 0 0.00,70.00 Z M 22.00,70.00 A 48,48 0 1 0 118.00,70.00 A 48,48 0 1 0 22.00,70.00 Z"/>
<g transform="translate(70.00,70.00) rotate(45)"><rect x="0" y="-11.00" width="113.26" height="22" rx="11.0" fill="#141312"/></g>
<rect x="160.00" y="40.00" width="22.00" height="63.50" rx="0" fill="#141312"/>
<rect x="214.00" y="40.00" width="22.00" height="63.50" rx="0" fill="#141312"/>
<path fill="#141312" d="M 160.00,102.00 A 38,38 0 0 0 236.00,102.00 L 214.00,102.00 A 16,16 0 0 1 182.00,102.00 Z"/>
<rect x="252.00" y="0.00" width="22.00" height="140.00" rx="0" fill="#141312"/>
<path fill-rule="evenodd" fill="#141312" d="M 252.60,35.00 A 35.4,35.4 0 1 0 323.40,35.00 A 35.4,35.4 0 1 0 252.60,35.00 Z M 274.60,35.00 A 13.399999999999999,13.399999999999999 0 1 0 301.40,35.00 A 13.399999999999999,13.399999999999999 0 1 0 274.60,35.00 Z"/>
<path fill-rule="evenodd" fill="#141312" d="M 252.60,105.00 A 35.4,35.4 0 1 0 323.40,105.00 A 35.4,35.4 0 1 0 252.60,105.00 Z M 274.60,105.00 A 13.399999999999999,13.399999999999999 0 1 0 301.40,105.00 A 13.399999999999999,13.399999999999999 0 1 0 274.60,105.00 Z"/>
<rect x="343.40" y="40.00" width="22.00" height="100.00" rx="0" fill="#141312"/>
<circle cx="354.40" cy="14.00" r="13" fill="#2B4DFF"/>
<g transform="translate(354.40,14.00) rotate(-28)"><ellipse rx="20.00" ry="7.64" fill="none" stroke="#2B4DFF" stroke-width="3.5"/></g>
<rect x="395.40" y="15.00" width="22.00" height="125.00" rx="0" fill="#141312"/>
<rect x="377.40" y="40.00" width="60.00" height="22.00" rx="0" fill="#141312"/></g>
<rect x="1008" y="1022" width="26" height="26" fill="#2B4DFF"/>
<text x="1046" y="1012" font-family="Work Sans" font-weight="700" font-size="26" fill="#141312">©</text>
<text x="90" y="1260" font-family="IBM Plex Mono" font-size="20" fill="#141312" opacity="0.78">QuBit — soluções em software &amp; análise de dados</text>
<text x="990" y="1260" font-family="IBM Plex Mono" font-size="20" fill="#141312" opacity="0.55" text-anchor="end">45° — (0+1)/√2</text></svg>