<svg xmlns="http://www.w3.org/2000/svg" viewBox="0 0 577 292" width="577" height="292"><g transform="translate(70,70)"><path fill-rule="evenodd" fill="#141312" d="M 0.00,70.00 A 70,70 0 1 0 140.00,70.00 A 70,70 0 1 0 0.00,70.00 Z M 22.00,70.00 A 48,48 0 1 0 118.00,70.00 A 48,48 0 1 0 22.00,70.00 Z"/>
<g transform="translate(70.00,70.00) rotate(45)"><rect x="0" y="-11.00" width="113.26" height="22" rx="11.0" fill="#141312"/></g>
<rect x="160.00" y="40.00" width="22.00" height="63.50" rx="0" fill="#141312"/>
<rect x="214.00" y="40.00" width="22.00" height="63.50" rx="0" fill="#141312"/>
<path fill="#141312" d="M 160.00,102.00 A 38,38 0 0 0 236.00,102.00 L 214.00,102.00 A 16,16 0 0 1 182.00,102.00 Z"/>
<rect x="252.00" y="0.00" width="22.00" height="140.00" rx="0" fill="#141312"/>
<path fill-rule="evenodd" fill="#141312" d="M 252.60,35.00 A 35.4,35.4 0 1 0 323.40,35.00 A 35.4,35.4 0 1 0 252.60,35.00 Z M 274.60,35.00 A 13.399999999999999,13.399999999999999 0 1 0 301.40,35.00 A 13.399999999999999,13.399999999999999 0 1 0 274.60,35.00 Z"/>
<path fill-rule="evenodd" fill="#141312" d="M 252.60,105.00 A 35.4,35.4 0 1 0 323.40,105.00 A 35.4,35.4 0 1 0 252.60,105.00 Z M 274.60,105.00 A 13.399999999999999,13.399999999999999 0 1 0 301.40,105.00 A 13.399999999999999,13.399999999999999 0 1 0 274.60,105.00 Z"/>
<rect x="343.40" y="40.00" width="22.00" height="100.00" rx="0" fill="#141312"/>
<circle cx="354.40" cy="14.00" r="13" fill="#2B4DFF"/>
<g transform="translate(354.40,14.00) rotate(-28)"><ellipse rx="20.00" ry="7.64" fill="none" stroke="#2B4DFF" stroke-width="3.5"/></g>
<rect x="395.40" y="15.00" width="22.00" height="125.00" rx="0" fill="#141312"/>
<rect x="377.40" y="40.00" width="60.00" height="22.00" rx="0" fill="#141312"/></g></svg>