<svg xmlns="http://www.w3.org/2000/svg" viewBox="0 0 512 512" width="512" height="512"><rect width="512" height="512" rx="96" fill="#141312"/><g transform="translate(61,48)"><rect x="169.0" y="0.0" width="13.0" height="13.0" fill="#1B2CC8"/>
<rect x="182.0" y="0.0" width="13.0" height="13.0" fill="#2B4DFF"/>
<rect x="195.0" y="0.0" width="13.0" height="13.0" fill="#2B4DFF"/>
<rect x="208.0" y="0.0" width="13.0" height="13.0" fill="#1B2CC8"/>
<rect x="130.0" y="13.0" width="13.0" height="13.0" fill="#2B4DFF"/>
<rect x="143.0" y="13.0" width="13.0" height="13.0" fill="#1B2CC8"/>
<rect x="156.0" y="13.0" width="13.0" height="13.0" fill="#1B2CC8"/>
<rect x="169.0" y="13.0" width="13.0" height="13.0" fill="#1B2CC8"/>
<rect x="182.0" y="13.0" width="13.0" height="13.0" fill="#1B2CC8"/>
<rect x="195.0" y="13.0" width="13.0" height="13.0" fill="#2B4DFF"/>
<rect x="208.0" y="13.0" width="13.0" height="13.0" fill="#1B2CC8"/>
<rect x="221.0" y="13.0" width="13.0" height="13.0" fill="#2B4DFF"/>
<rect x="234.0" y="13.0" width="13.0" height="13.0" fill="#1B2CC8"/>
<rect x="247.0" y="13.0" width="13.0" height="13.0" fill="#2B4DFF"/>
<rect x="117.0" y="26.0" width="13.0" height="13.0" fill="#1B2CC8"/>
<rect x="130.0" y="26.0" width="13.0" height="13.0" fill="#1B2CC8"/>
<rect x="143.0" y="26.0" width="13.0" height="13.0" fill="#2B4DFF"/>
<rect x="156.0" y="26.0" width="13.0" height="13.0" fill="#1B2CC8"/>
<rect x="169.0" y="26.0" width="13.0" height="13.0" fill="#1B2CC8"/>
<rect x="182.0" y="26.0" width="13.0" height="13.0" fill="#1B2CC8"/>
<rect x="195.0" y="26.0" width="13.0" height="13.0" fill="#1B2CC8"/>
<rect x="208.0" y="26.0" width="13.0" height="13.0" fill="#2B4DFF"/>
<rect x="221.0" y="26.0" width="13.0" height="13.0" fill="#2B4DFF"/>
<rect x="234.0" y="26.0" width="13.0" height="13.0" fill="#2B4DFF"/>
<rect x="247.0" y="26.0" width="13.0" height="13.0" fill="#1B2CC8"/>
<rect x="260.0" y="26.0" width="13.0" height="13.0" fill="#2B4DFF"/>
<rect x="104.0" y="39.0" width="13.0" height="13.0" fill="#1B2CC8"/>
<rect x="117.0" y="39.0" width="13.0" height="13.0" fill="#1B2CC8"/>
<rect x="130.0" y="39.0" width="13.0" height="13.0" fill="#1B2CC8"/>
<rect x="143.0" y="39.0" width="13.0" height="13.0" fill="#2B4DFF"/>
<rect x="156.0" y="39.0" width="13.0" height="13.0" fill="#1B2CC8"/>
<rect x="169.0" y="39.0" width="13.0" height="13.0" fill="#1B2CC8"/>
<rect x="182.0" y="39.0" width="13.0" height="13.0" fill="#2B4DFF"/>
<rect x="195.0" y="39.0" width="13.0" height="13.0" fill="#1B2CC8"/>
<rect x="208.0" y="39.0" width="13.0" height="13.0" fill="#2B4DFF"/>
<rect x="221.0" y="39.0" width="13.0" height="13.0" fill="#1B2CC8"/>
<rect x="234.0" y="39.0" width="13.0" height="13.0" fill="#1B2CC8"/>
<rect x="247.0" y="39.0" width="13.0" height="13.0" fill="#1B2CC8"/>
<rect x="260.0" y="39.0" width="13.0" height="13.0" fill="#2B4DFF"/>
<rect x="273.0" y="39.0" width="13.0" height="13.0" fill="#2B4DFF"/>
<rect x="104.0" y="52.0" width="13.0" height="13.0" fill="#1B2CC8"/>
<rect x="117.0" y="52.0" width="13.0" height="13.0" fill="#1B2CC8"/>
<rect x="130.0" y="52.0" width="13.0" height="13.0" fill="#2B4DFF"/>
<rect x="143.0" y="52.0" width="13.0" height="13.0" fill="#2B4DFF"/>
<rect x="156.0" y="52.0" width="13.0" height="13.0" fill="#2B4DFF"/>
<rect x="169.0" y="52.0" width="13.0" height="13.0" fill="#2B4DFF"/>
<rect x="182.0" y="52.0" width="13.0" height="13.0" fill="#2B4DFF"/>
<rect x="195.0" y="52.0" width="13.0" height="13.0" fill="#1B2CC8"/>
<rect x="208.0" y="52.0" width="13.0" height="13.0" fill="#2B4DFF"/>
<rect x="221.0" y="52.0" width="13.0" height="13.0" fill="#2B4DFF"/>
<rect x="234.0" y="52.0" width="13.0" height="13.0" fill="#1B2CC8"/>
<rect x="247.0" y="52.0" width="13.0" height="13.0" fill="#2B4DFF"/>
<rect x="260.0" y="52.0" width="13.0" height="13.0" fill="#1B2CC8"/>
<rect x="273.0" y="52.0" width="13.0" height="13.0" fill="#2B4DFF"/>
<rect x="104.0" y="65.0" width="13.0" height="13.0" fill="#2B4DFF"/>
<rect x="117.0" y="65.0" width="13.0" height="13.0" fill="#2B4DFF"/>
<rect x="130.0" y="65.0" width="13.0" height="13.0" fill="#2B4DFF"/>
<rect x="143.0" y="65.0" width="13.0" height="13.0" fill="#1B2CC8"/>
<rect x="156.0" y="65.0" width="13.0" height="13.0" fill="#1B2CC8"/>
<rect x="169.0" y="65.0" width="13.0" height="13.0" fill="#1B2CC8"/>
<rect x="182.0" y="65.0" width="13.0" height="13.0" fill="#2B4DFF"/>
<rect x="195.0" y="65.0" width="13.0" height="13.0" fill="#2B4DFF"/>
<rect x="208.0" y="65.0" width="13.0" height="13.0" fill="#2B4DFF"/>
<rect x="221.0" y="65.0" width="13.0" height="13.0" fill="#6C3BFF"/>
<rect x="234.0" y="65.0" width="13.0" height="13.0" fill="#2B4DFF"/>
<rect x="247.0" y="65.0" width="13.0" height="13.0" fill="#2B4DFF"/>
<rect x="260.0" y="65.0" width="13.0" height="13.0" fill="#2B4DFF"/>
<rect x="273.0" y="65.0" width="13.0" height="13.0" fill="#2B4DFF"/>
<rect x="91.0" y="78.0" width="13.0" height="13.0" fill="#2B4DFF"/>
<rect x="104.0" y="78.0" width="13.0" height="13.0" fill="#2B4DFF"/>
<rect x="117.0" y="78.0" width="13.0" height="13.0" fill="#2B4DFF"/>
<rect x="130.0" y="78.0" width="13.0" height="13.0" fill="#1B2CC8"/>
<rect x="143.0" y="78.0" width="13.0" height="13.0" fill="#2B4DFF"/>
<rect x="156.0" y="78.0" width="13.0" height="13.0" fill="#2B4DFF"/>
<rect x="169.0" y="78.0" width="13.0" height="13.0" fill="#2B4DFF"/>
<rect x="182.0" y="78.0" width="13.0" height="13.0" fill="#1B2CC8"/>
<rect x="195.0" y="78.0" width="13.0" height="13.0" fill="#2B4DFF"/>
<rect x="208.0" y="78.0" width="13.0" height="13.0" fill="#6C3BFF"/>
<rect x="221.0" y="78.0" width="13.0" height="13.0" fill="#2B4DFF"/>
<rect x="234.0" y="78.0" width="13.0" height="13.0" fill="#2B4DFF"/>
<rect x="247.0" y="78.0" width="13.0" height="13.0" fill="#2B4DFF"/>
<rect x="260.0" y="78.0" width="13.0" height="13.0" fill="#2B4DFF"/>
<rect x="273.0" y="78.0" width="13.0" height="13.0" fill="#2B4DFF"/>
<rect x="286.0" y="78.0" width="13.0" height="13.0" fill="#6C3BFF"/>
<rect x="91.0" y="91.0" width="13.0" height="13.0" fill="#1B2CC8"/>
<rect x="104.0" y="91.0" width="13.0" height="13.0" fill="#2B4DFF"/>
<rect x="117.0" y="91.0" width="13.0" height="13.0" fill="#1B2CC8"/>
<rect x="130.0" y="91.0" width="13.0" height="13.0" fill="#2B4DFF"/>
<rect x="143.0" y="91.0" width="13.0" height="13.0" fill="#1B2CC8"/>
<rect x="156.0" y="91.0" width="13.0" height="13.0" fill="#2B4DFF"/>
<rect x="182.0" y="91.0" width="13.0" height="13.0" fill="#6C3BFF"/>
<rect x="195.0" y="91.0" width="13.0" height="13.0" fill="#2B4DFF"/>
<rect x="208.0" y="91.0" width="13.0" height="13.0" fill="#2B4DFF"/>
<rect x="221.0" y="91.0" width="13.0" height="13.0" fill="#6C3BFF"/>
<rect x="234.0" y="91.0" width="13.0" height="13.0" fill="#2B4DFF"/>
<rect x="247.0" y="91.0" width="13.0" height="13.0" fill="#2B4DFF"/>
<rect x="260.0" y="91.0" width="13.0" height="13.0" fill="#2B4DFF"/>
<rect x="273.0" y="91.0" width="13.0" height="13.0" fill="#6C3BFF"/>
<rect x="286.0" y="91.0" width="13.0" height="13.0" fill="#2B4DFF"/>
<rect x="91.0" y="104.0" width="13.0" height="13.0" fill="#2B4DFF"/>
<rect x="104.0" y="104.0" width="13.0" height="13.0" fill="#2B4DFF"/>
<rect x="117.0" y="104.0" width="13.0" height="13.0" fill="#141312"/>
<rect x="130.0" y="104.0" width="13.0" height="13.0" fill="#141312"/>
<rect x="143.0" y="104.0" width="13.0" height="13.0" fill="#141312"/>
<rect x="156.0" y="104.0" width="13.0" height="13.0" fill="#6C3BFF"/>
<rect x="169.0" y="104.0" width="13.0" height="13.0" fill="#2B4DFF"/>
<rect x="182.0" y="104.0" width="13.0" height="13.0" fill="#2B4DFF"/>
<rect x="195.0" y="104.0" width="13.0" height="13.0" fill="#2B4DFF"/>
<rect x="208.0" y="104.0" width="13.0" height="13.0" fill="#2B4DFF"/>
<rect x="221.0" y="104.0" width="13.0" height="13.0" fill="#6C3BFF"/>
<rect x="234.0" y="104.0" width="13.0" height="13.0" fill="#141312"/>
<rect x="247.0" y="104.0" width="13.0" height="13.0" fill="#141312"/>
<rect x="260.0" y="104.0" width="13.0" height="13.0" fill="#141312"/>
<rect x="273.0" y="104.0" width="13.0" height="13.0" fill="#2B4DFF"/>
<rect x="286.0" y="104.0" width="13.0" height="13.0" fill="#2B4DFF"/>
<rect x="91.0" y="117.0" width="13.0" height="13.0" fill="#1B2CC8"/>
<rect x="104.0" y="117.0" width="13.0" height="13.0" fill="#1B2CC8"/>
<rect x="117.0" y="117.0" width="13.0" height="13.0" fill="#141312"/>
<rect x="130.0" y="117.0" width="13.0" height="13.0" fill="#EDE8DC"/>
<rect x="143.0" y="117.0" width="13.0" height="13.0" fill="#141312"/>
<rect x="156.0" y="117.0" width="13.0" height="13.0" fill="#2B4DFF"/>
<rect x="169.0" y="117.0" width="13.0" height="13.0" fill="#6C3BFF"/>
<rect x="182.0" y="117.0" width="13.0" height="13.0" fill="#6C3BFF"/>
<rect x="195.0" y="117.0" width="13.0" height="13.0" fill="#6C3BFF"/>
<rect x="208.0" y="117.0" width="13.0" height="13.0" fill="#2B4DFF"/>
<rect x="221.0" y="117.0" width="13.0" height="13.0" fill="#6C3BFF"/>
<rect x="234.0" y="117.0" width="13.0" height="13.0" fill="#141312"/>
<rect x="247.0" y="117.0" width="13.0" height="13.0" fill="#EDE8DC"/>
<rect x="260.0" y="117.0" width="13.0" height="13.0" fill="#141312"/>
<rect x="273.0" y="117.0" width="13.0" height="13.0" fill="#2B4DFF"/>
<rect x="286.0" y="117.0" width="13.0" height="13.0" fill="#2B4DFF"/>
<rect x="104.0" y="130.0" width="13.0" height="13.0" fill="#1B2CC8"/>
<rect x="117.0" y="130.0" width="13.0" height="13.0" fill="#141312"/>
<rect x="130.0" y="130.0" width="13.0" height="13.0" fill="#141312"/>
<rect x="143.0" y="130.0" width="13.0" height="13.0" fill="#141312"/>
<rect x="156.0" y="130.0" width="13.0" height="13.0" fill="#6C3BFF"/>
<rect x="169.0" y="130.0" width="13.0" height="13.0" fill="#2B4DFF"/>
<rect x="182.0" y="130.0" width="13.0" height="13.0" fill="#2B4DFF"/>
<rect x="195.0" y="130.0" width="13.0" height="13.0" fill="#6C3BFF"/>
<rect x="208.0" y="130.0" width="13.0" height="13.0" fill="#6C3BFF"/>
<rect x="221.0" y="130.0" width="13.0" height="13.0" fill="#6C3BFF"/>
<rect x="234.0" y="130.0" width="13.0" height="13.0" fill="#141312"/>
<rect x="247.0" y="130.0" width="13.0" height="13.0" fill="#141312"/>
<rect x="260.0" y="130.0" width="13.0" height="13.0" fill="#141312"/>
<rect x="273.0" y="130.0" width="13.0" height="13.0" fill="#6C3BFF"/>
<rect x="104.0" y="143.0" width="13.0" height="13.0" fill="#2B4DFF"/>
<rect x="117.0" y="143.0" width="13.0" height="13.0" fill="#2B4DFF"/>
<rect x="130.0" y="143.0" width="13.0" height="13.0" fill="#6C3BFF"/>
<rect x="143.0" y="143.0" width="13.0" height="13.0" fill="#2B4DFF"/>
<rect x="156.0" y="143.0" width="13.0" height="13.0" fill="#2B4DFF"/>
<rect x="169.0" y="143.0" width="13.0" height="13.0" fill="#6C3BFF"/>
<rect x="182.0" y="143.0" width="13.0" height="13.0" fill="#2B4DFF"/>
<rect x="195.0" y="143.0" width="13.0" height="13.0" fill="#6C3BFF"/>
<rect x="208.0" y="143.0" width="13.0" height="13.0" fill="#2B4DFF"/>
<rect x="221.0" y="143.0" width="13.0" height="13.0" fill="#2B4DFF"/>
<rect x="234.0" y="143.0" width="13.0" height="13.0" fill="#6C3BFF"/>
<rect x="247.0" y="143.0" width="13.0" height="13.0" fill="#6C3BFF"/>
<rect x="260.0" y="143.0" width="13.0" height="13.0" fill="#6C3BFF"/>
<rect x="273.0" y="143.0" width="13.0" height="13.0" fill="#6C3BFF"/>
<rect x="117.0" y="156.0" width="13.0" height="13.0" fill="#6C3BFF"/>
<rect x="130.0" y="156.0" width="13.0" height="13.0" fill="#2B4DFF"/>
<rect x="143.0" y="156.0" width="13.0" height="13.0" fill="#2B4DFF"/>
<rect x="156.0" y="156.0" width="13.0" height="13.0" fill="#2B4DFF"/>
<rect x="169.0" y="156.0" width="13.0" height="13.0" fill="#2B4DFF"/>
<rect x="182.0" y="156.0" width="13.0" height="13.0" fill="#2B4DFF"/>
<rect x="195.0" y="156.0" width="13.0" height="13.0" fill="#2B4DFF"/>
<rect x="208.0" y="156.0" width="13.0" height="13.0" fill="#6C3BFF"/>
<rect x="221.0" y="156.0" width="13.0" height="13.0" fill="#2B4DFF"/>
<rect x="234.0" y="156.0" width="13.0" height="13.0" fill="#6C3BFF"/>
<rect x="260.0" y="156.0" width="13.0" height="13.0" fill="#6C3BFF"/>
<rect x="130.0" y="169.0" width="13.0" height="13.0" fill="#6C3BFF"/>
<rect x="143.0" y="169.0" width="13.0" height="13.0" fill="#2B4DFF"/>
<rect x="156.0" y="169.0" width="13.0" height="13.0" fill="#2B4DFF"/>
<rect x="169.0" y="169.0" width="13.0" height="13.0" fill="#2B4DFF"/>
<rect x="182.0" y="169.0" width="13.0" height="13.0" fill="#2B4DFF"/>
<rect x="195.0" y="169.0" width="13.0" height="13.0" fill="#6C3BFF"/>
<rect x="208.0" y="169.0" width="13.0" height="13.0" fill="#6C3BFF"/>
<rect x="221.0" y="169.0" width="13.0" height="13.0" fill="#6C3BFF"/>
<rect x="234.0" y="169.0" width="13.0" height="13.0" fill="#6C3BFF"/>
<rect x="247.0" y="169.0" width="13.0" height="13.0" fill="#6C3BFF"/>
<rect x="156.0" y="182.0" width="13.0" height="13.0" fill="#6C3BFF"/>
<rect x="169.0" y="182.0" width="13.0" height="13.0" fill="#6C3BFF"/>
<rect x="182.0" y="182.0" width="13.0" height="13.0" fill="#6C3BFF"/>
<rect x="195.0" y="182.0" width="13.0" height="13.0" fill="#6C3BFF"/>
<rect x="208.0" y="182.0" width="13.0" height="13.0" fill="#C42BD6"/>
<rect x="221.0" y="182.0" width="13.0" height="13.0" fill="#6C3BFF"/>
<rect x="117.0" y="169.0" width="13.0" height="13.0" fill="#6C3BFF"/>
<rect x="104.0" y="182.0" width="13.0" height="13.0" fill="#2B4DFF"/>
<rect x="117.0" y="182.0" width="13.0" height="13.0" fill="#6C3BFF"/>
<rect x="104.0" y="195.0" width="13.0" height="13.0" fill="#2B4DFF"/>
<rect x="117.0" y="195.0" width="13.0" height="13.0" fill="#2B4DFF"/>
<rect x="91.0" y="208.0" width="13.0" height="13.0" fill="#2B4DFF"/>
<rect x="104.0" y="208.0" width="13.0" height="13.0" fill="#6C3BFF"/>
<rect x="78.0" y="221.0" width="13.0" height="13.0" fill="#6C3BFF"/>
<rect x="91.0" y="221.0" width="13.0" height="13.0" fill="#6C3BFF"/>
<rect x="65.0" y="234.0" width="13.0" height="13.0" fill="#6C3BFF"/>
<rect x="52.0" y="234.0" width="13.0" height="13.0" fill="#6C3BFF"/>
<rect x="39.0" y="247.0" width="13.0" height="13.0" fill="#6C3BFF"/>
<rect x="52.0" y="247.0" width="13.0" height="13.0" fill="#6C3BFF"/>
<rect x="26.0" y="260.0" width="13.0" height="13.0" fill="#6C3BFF"/>
<rect x="39.0" y="260.0" width="13.0" height="13.0" fill="#6C3BFF"/>
<rect x="13.0" y="273.0" width="13.0" height="13.0" fill="#6C3BFF"/>
<rect x="26.0" y="273.0" width="13.0" height="13.0" fill="#6C3BFF"/>
<rect x="0.0" y="286.0" width="13.0" height="13.0" fill="#6C3BFF"/>
<rect x="13.0" y="286.0" width="13.0" height="13.0" fill="#C42BD6"/>
<rect x="0.0" y="299.0" width="13.0" height="13.0" fill="#2B4DFF"/>
<rect x="143.0" y="182.0" width="13.0" height="13.0" fill="#6C3BFF"/>
<rect x="130.0" y="195.0" width="13.0" height="13.0" fill="#2B4DFF"/>
<rect x="143.0" y="195.0" width="13.0" height="13.0" fill="#6C3BFF"/>
<rect x="117.0" y="208.0" width="13.0" height="13.0" fill="#2B4DFF"/>
<rect x="130.0" y="208.0" width="13.0" height="13.0" fill="#6C3BFF"/>
<rect x="104.0" y="221.0" width="13.0" height="13.0" fill="#2B4DFF"/>
<rect x="117.0" y="221.0" width="13.0" height="13.0" fill="#6C3BFF"/>
<rect x="91.0" y="234.0" width="13.0" height="13.0" fill="#6C3BFF"/>
<rect x="104.0" y="234.0" width="13.0" height="13.0" fill="#2B4DFF"/>
<rect x="91.0" y="247.0" width="13.0" height="13.0" fill="#6C3BFF"/>
<rect x="104.0" y="247.0" width="13.0" height="13.0" fill="#C42BD6"/>
<rect x="78.0" y="260.0" width="13.0" height="13.0" fill="#6C3BFF"/>
<rect x="91.0" y="260.0" width="13.0" height="13.0" fill="#C42BD6"/>
<rect x="78.0" y="273.0" width="13.0" height="13.0" fill="#6C3BFF"/>
<rect x="91.0" y="273.0" width="13.0" height="13.0" fill="#C42BD6"/>
<rect x="65.0" y="286.0" width="13.0" height="13.0" fill="#6C3BFF"/>
<rect x="78.0" y="286.0" width="13.0" height="13.0" fill="#6C3BFF"/>
<rect x="65.0" y="299.0" width="13.0" height="13.0" fill="#C42BD6"/>
<rect x="52.0" y="312.0" width="13.0" height="13.0" fill="#C42BD6"/>
<rect x="39.0" y="312.0" width="13.0" height="13.0" fill="#C42BD6"/>
<rect x="26.0" y="312.0" width="13.0" height="13.0" fill="#6C3BFF"/>
<rect x="26.0" y="299.0" width="13.0" height="13.0" fill="#C42BD6"/>
<rect x="156.0" y="195.0" width="13.0" height="13.0" fill="#6C3BFF"/>
<rect x="143.0" y="208.0" width="13.0" height="13.0" fill="#6C3BFF"/>
<rect x="156.0" y="208.0" width="13.0" height="13.0" fill="#2B4DFF"/>
<rect x="143.0" y="221.0" width="13.0" height="13.0" fill="#C42BD6"/>
<rect x="156.0" y="221.0" width="13.0" height="13.0" fill="#C42BD6"/>
<rect x="143.0" y="234.0" width="13.0" height="13.0" fill="#C42BD6"/>
<rect x="156.0" y="234.0" width="13.0" height="13.0" fill="#6C3BFF"/>
<rect x="143.0" y="247.0" width="13.0" height="13.0" fill="#6C3BFF"/>
<rect x="156.0" y="247.0" width="13.0" height="13.0" fill="#6C3BFF"/>
<rect x="143.0" y="260.0" width="13.0" height="13.0" fill="#C42BD6"/>
<rect x="156.0" y="260.0" width="13.0" height="13.0" fill="#C42BD6"/>
<rect x="130.0" y="273.0" width="13.0" height="13.0" fill="#6C3BFF"/>
<rect x="143.0" y="273.0" width="13.0" height="13.0" fill="#6C3BFF"/>
<rect x="130.0" y="286.0" width="13.0" height="13.0" fill="#C42BD6"/>
<rect x="143.0" y="286.0" width="13.0" height="13.0" fill="#6C3BFF"/>
<rect x="117.0" y="299.0" width="13.0" height="13.0" fill="#C42BD6"/>
<rect x="130.0" y="299.0" width="13.0" height="13.0" fill="#C42BD6"/>
<rect x="117.0" y="312.0" width="13.0" height="13.0" fill="#C42BD6"/>
<rect x="130.0" y="312.0" width="13.0" height="13.0" fill="#C42BD6"/>
<rect x="104.0" y="325.0" width="13.0" height="13.0" fill="#6C3BFF"/>
<rect x="117.0" y="325.0" width="13.0" height="13.0" fill="#C42BD6"/>
<rect x="104.0" y="338.0" width="13.0" height="13.0" fill="#6C3BFF"/>
<rect x="104.0" y="351.0" width="13.0" height="13.0" fill="#C42BD6"/>
<rect x="117.0" y="351.0" width="13.0" height="13.0" fill="#C42BD6"/>
<rect x="130.0" y="351.0" width="13.0" height="13.0" fill="#FF3D6E"/>
<rect x="130.0" y="338.0" width="13.0" height="13.0" fill="#FF3D6E"/>
<rect x="182.0" y="195.0" width="13.0" height="13.0" fill="#2B4DFF"/>
<rect x="195.0" y="195.0" width="13.0" height="13.0" fill="#6C3BFF"/>
<rect x="182.0" y="208.0" width="13.0" height="13.0" fill="#6C3BFF"/>
<rect x="195.0" y="208.0" width="13.0" height="13.0" fill="#2B4DFF"/>
<rect x="182.0" y="221.0" width="13.0" height="13.0" fill="#6C3BFF"/>
<rect x="195.0" y="221.0" width="13.0" height="13.0" fill="#6C3BFF"/>
<rect x="182.0" y="234.0" width="13.0" height="13.0" fill="#C42BD6"/>
<rect x="195.0" y="234.0" width="13.0" height="13.0" fill="#6C3BFF"/>
<rect x="169.0" y="247.0" width="13.0" height="13.0" fill="#6C3BFF"/>
<rect x="169.0" y="260.0" width="13.0" height="13.0" fill="#6C3BFF"/>
<rect x="208.0" y="195.0" width="13.0" height="13.0" fill="#2B4DFF"/>
<rect x="221.0" y="195.0" width="13.0" height="13.0" fill="#6C3BFF"/>
<rect x="208.0" y="208.0" width="13.0" height="13.0" fill="#6C3BFF"/>
<rect x="221.0" y="208.0" width="13.0" height="13.0" fill="#C42BD6"/>
<rect x="208.0" y="221.0" width="13.0" height="13.0" fill="#6C3BFF"/>
<rect x="221.0" y="221.0" width="13.0" height="13.0" fill="#6C3BFF"/>
<rect x="208.0" y="234.0" width="13.0" height="13.0" fill="#C42BD6"/>
<rect x="208.0" y="247.0" width="13.0" height="13.0" fill="#C42BD6"/>
<rect x="221.0" y="247.0" width="13.0" height="13.0" fill="#C42BD6"/>
<rect x="208.0" y="260.0" width="13.0" height="13.0" fill="#6C3BFF"/>
<rect x="208.0" y="273.0" width="13.0" height="13.0" fill="#C42BD6"/>
<rect x="221.0" y="273.0" width="13.0" height="13.0" fill="#C42BD6"/>
<rect x="234.0" y="273.0" width="13.0" height="13.0" fill="#C42BD6"/>
<rect x="234.0" y="260.0" width="13.0" height="13.0" fill="#C42BD6"/>
<rect x="234.0" y="182.0" width="13.0" height="13.0" fill="#6C3BFF"/>
<rect x="234.0" y="195.0" width="13.0" height="13.0" fill="#6C3BFF"/>
<rect x="234.0" y="208.0" width="13.0" height="13.0" fill="#6C3BFF"/>
<rect x="247.0" y="208.0" width="13.0" height="13.0" fill="#6C3BFF"/>
<rect x="234.0" y="221.0" width="13.0" height="13.0" fill="#6C3BFF"/>
<rect x="247.0" y="221.0" width="13.0" height="13.0" fill="#6C3BFF"/>
<rect x="247.0" y="234.0" width="13.0" height="13.0" fill="#6C3BFF"/>
<rect x="260.0" y="234.0" width="13.0" height="13.0" fill="#6C3BFF"/>
<rect x="247.0" y="247.0" width="13.0" height="13.0" fill="#C42BD6"/>
<rect x="260.0" y="247.0" width="13.0" height="13.0" fill="#C42BD6"/>
<rect x="260.0" y="260.0" width="13.0" height="13.0" fill="#6C3BFF"/>
<rect x="273.0" y="260.0" width="13.0" height="13.0" fill="#C42BD6"/>
<rect x="260.0" y="273.0" width="13.0" height="13.0" fill="#C42BD6"/>
<rect x="273.0" y="273.0" width="13.0" height="13.0" fill="#6C3BFF"/>
<rect x="260.0" y="286.0" width="13.0" height="13.0" fill="#C42BD6"/>
<rect x="273.0" y="286.0" width="13.0" height="13.0" fill="#C42BD6"/>
<rect x="260.0" y="299.0" width="13.0" height="13.0" fill="#C42BD6"/>
<rect x="273.0" y="299.0" width="13.0" height="13.0" fill="#C42BD6"/>
<rect x="260.0" y="312.0" width="13.0" height="13.0" fill="#FF3D6E"/>
<rect x="273.0" y="312.0" width="13.0" height="13.0" fill="#FF3D6E"/>
<rect x="260.0" y="325.0" width="13.0" height="13.0" fill="#C42BD6"/>
<rect x="273.0" y="325.0" width="13.0" height="13.0" fill="#C42BD6"/>
<rect x="273.0" y="338.0" width="13.0" height="13.0" fill="#C42BD6"/>
<rect x="273.0" y="351.0" width="13.0" height="13.0" fill="#FF3D6E"/>
<rect x="286.0" y="351.0" width="13.0" height="13.0" fill="#FF3D6E"/>
<rect x="299.0" y="351.0" width="13.0" height="13.0" fill="#C42BD6"/>
<rect x="299.0" y="338.0" width="13.0" height="13.0" fill="#C42BD6"/>
<rect x="247.0" y="182.0" width="13.0" height="13.0" fill="#6C3BFF"/>
<rect x="260.0" y="182.0" width="13.0" height="13.0" fill="#6C3BFF"/>
<rect x="260.0" y="195.0" width="13.0" height="13.0" fill="#6C3BFF"/>
<rect x="273.0" y="195.0" width="13.0" height="13.0" fill="#C42BD6"/>
<rect x="273.0" y="208.0" width="13.0" height="13.0" fill="#C42BD6"/>
<rect x="273.0" y="221.0" width="13.0" height="13.0" fill="#C42BD6"/>
<rect x="286.0" y="221.0" width="13.0" height="13.0" fill="#6C3BFF"/>
<rect x="286.0" y="234.0" width="13.0" height="13.0" fill="#6C3BFF"/>
<rect x="299.0" y="234.0" width="13.0" height="13.0" fill="#C42BD6"/>
<rect x="286.0" y="247.0" width="13.0" height="13.0" fill="#C42BD6"/>
<rect x="299.0" y="247.0" width="13.0" height="13.0" fill="#6C3BFF"/>
<rect x="299.0" y="260.0" width="13.0" height="13.0" fill="#C42BD6"/>
<rect x="312.0" y="260.0" width="13.0" height="13.0" fill="#C42BD6"/>
<rect x="299.0" y="273.0" width="13.0" height="13.0" fill="#C42BD6"/>
<rect x="312.0" y="273.0" width="13.0" height="13.0" fill="#C42BD6"/>
<rect x="312.0" y="286.0" width="13.0" height="13.0" fill="#C42BD6"/>
<rect x="325.0" y="286.0" width="13.0" height="13.0" fill="#C42BD6"/>
<rect x="312.0" y="299.0" width="13.0" height="13.0" fill="#FF3D6E"/>
<rect x="325.0" y="312.0" width="13.0" height="13.0" fill="#C42BD6"/>
<rect x="312.0" y="312.0" width="13.0" height="13.0" fill="#C42BD6"/>
<rect x="299.0" y="312.0" width="13.0" height="13.0" fill="#FF3D6E"/>
<rect x="299.0" y="299.0" width="13.0" height="13.0" fill="#FF3D6E"/>
<rect x="260.0" y="169.0" width="13.0" height="13.0" fill="#6C3BFF"/>
<rect x="273.0" y="169.0" width="13.0" height="13.0" fill="#6C3BFF"/>
<rect x="273.0" y="182.0" width="13.0" height="13.0" fill="#C42BD6"/>
<rect x="286.0" y="182.0" width="13.0" height="13.0" fill="#6C3BFF"/>
<rect x="286.0" y="195.0" width="13.0" height="13.0" fill="#6C3BFF"/>
<rect x="299.0" y="195.0" width="13.0" height="13.0" fill="#C42BD6"/>
<rect x="299.0" y="208.0" width="13.0" height="13.0" fill="#C42BD6"/>
<rect x="312.0" y="208.0" width="13.0" height="13.0" fill="#C42BD6"/>
<rect x="312.0" y="221.0" width="13.0" height="13.0" fill="#C42BD6"/>
<rect x="325.0" y="221.0" width="13.0" height="13.0" fill="#C42BD6"/>
<rect x="325.0" y="234.0" width="13.0" height="13.0" fill="#C42BD6"/>
<rect x="338.0" y="234.0" width="13.0" height="13.0" fill="#6C3BFF"/>
<rect x="338.0" y="247.0" width="13.0" height="13.0" fill="#C42BD6"/>
<rect x="351.0" y="247.0" width="13.0" height="13.0" fill="#C42BD6"/>
<rect x="351.0" y="260.0" width="13.0" height="13.0" fill="#C42BD6"/>
<rect x="364.0" y="260.0" width="13.0" height="13.0" fill="#FF3D6E"/>
<rect x="364.0" y="273.0" width="13.0" height="13.0" fill="#C42BD6"/>
<rect x="377.0" y="273.0" width="13.0" height="13.0" fill="#FF3D6E"/>
<rect x="377.0" y="286.0" width="13.0" height="13.0" fill="#C42BD6"/>
<rect x="273.0" y="13.0" width="13.0" height="13.0" fill="#1B2CC8"/>
<rect x="26.0" y="156.0" width="13.0" height="13.0" fill="#2B4DFF"/>
<rect x="351.0" y="221.0" width="13.0" height="13.0" fill="#6C3BFF"/>
<rect x="325.0" y="377.0" width="13.0" height="13.0" fill="#FF3D6E"/>
<rect x="39.0" y="78.0" width="13.0" height="13.0" fill="#1B2CC8"/>
<rect x="364.0" y="351.0" width="13.0" height="13.0" fill="#FF3D6E"/>
<rect x="0.0" y="208.0" width="13.0" height="13.0" fill="#6C3BFF"/></g></svg>